<svg xmlns="http://www.w3.org/2000/svg" width="31" height="6.7" viewBox="0 0 31 6.7"><style>.st0{fill:#333}</style><path class="st0" d="M6 5.6c-.7.7-1.6 1-2.6 1S1.6 6.4 1 5.8c-.7-.6-1-1.5-1-2.5S.3 1.5 1 .9C1.6.3 2.4 0 3.3 0c.9 0 1.6.3 2.3.8s.9 1.3.9 2.2v1H1.8c0 .3.2.6.5.8.3.3.7.4 1.1.4.6 0 1.1-.2 1.5-.7L6 5.6zM4.2 1.8c-.2-.2-.5-.3-.9-.3s-.7.1-1 .3-.4.5-.5.9h2.8c0-.4-.1-.7-.4-.9zM9.4 6.6L6.9.1h1.9l1.6 4.1L12 .1h1.9l-2.6 6.5H9.4zM20.3 5.6c-.7.7-1.6 1-2.6 1s-1.7-.2-2.4-.8c-.6-.6-1-1.4-1-2.4s.3-1.8 1-2.4c.7-.7 1.5-1 2.3-1 .9 0 1.6.3 2.3.8s.9 1.3.9 2.2v1h-4.7c.1.4.2.6.6.9.3.2.7.3 1.1.3.6 0 1.2-.2 1.6-.6l.9 1zm-1.7-3.8c-.2-.2-.5-.3-.9-.3s-.7.1-1 .3-.5.5-.5.9H19c0-.4-.2-.7-.4-.9zM25.5 1.7c-.5 0-.9.2-1.2.6-.3.4-.4.9-.4 1.5v2.8h-1.8V.1h1.8V1c.2-.3.5-.5.9-.7.3-.2.7-.3 1.1-.3v1.7h-.4zM28.2 5.6V4h-1.6V2.9h1.6V1.2h1.2v1.6H31V4h-1.6v1.6h-1.2z"/></svg>